<?xml version="1.0" encoding="UTF-8" standalone="no"?>
<svg
   xmlns:dc="http://purl.org/dc/elements/1.1/"
   xmlns:cc="http://creativecommons.org/ns#"
   xmlns:rdf="http://www.w3.org/1999/02/22-rdf-syntax-ns#"
   xmlns:svg="http://www.w3.org/2000/svg"
   xmlns="http://www.w3.org/2000/svg"
   xmlns:sodipodi="http://sodipodi.sourceforge.net/DTD/sodipodi-0.dtd"
   xmlns:inkscape="http://www.inkscape.org/namespaces/inkscape"
   sodipodi:docname="list_ordered.svg"
   inkscape:version="1.0 (4035a4fb49, 2020-05-01)"
   id="svg8"
   version="1.1"
   viewBox="0 0 8.7406988 8.7406988"
   height="8.7406988mm"
   width="8.7406988mm">
  <defs
     id="defs2" />
  <sodipodi:namedview
     inkscape:window-maximized="0"
     inkscape:window-y="0"
     inkscape:window-x="173"
     inkscape:window-height="1024"
     inkscape:window-width="1624"
     inkscape:object-nodes="false"
     showgrid="false"
     inkscape:document-rotation="0"
     inkscape:current-layer="layer1"
     inkscape:document-units="mm"
     inkscape:cy="44.565676"
     inkscape:cx="13.151286"
     inkscape:zoom="7.9195959"
     inkscape:pageshadow="2"
     inkscape:pageopacity="0.0"
     borderopacity="1.0"
     bordercolor="#666666"
     pagecolor="#ffffff"
     id="base" />
  <metadata
     id="metadata5">
    <rdf:RDF>
      <cc:Work
         rdf:about="">
        <dc:format>image/svg+xml</dc:format>
        <dc:type
           rdf:resource="http://purl.org/dc/dcmitype/StillImage" />
        <dc:title />
      </cc:Work>
    </rdf:RDF>
  </metadata>
  <g
     transform="translate(-33.570953,-88.687195)"
     id="layer1"
     inkscape:groupmode="layer"
     inkscape:label="Layer 1">
    <g
       id="g852">
      <path
         id="path882"
         d="M 38.711429,90.71879 H 35.94743 v -0.198438 -0.198437 h 2.763999 2.763998 v 0.198437 0.198438 z"
         style="fill:#929190;stroke-width:0.302346" />
      <path
         id="path884"
         d="M 38.711429,93.100044 H 35.94743 v -0.198438 -0.198437 h 2.763999 2.763998 v 0.198437 0.198438 z"
         style="fill:#929190;stroke-width:0.302346" />
      <path
         id="path886"
         d="M 38.711429,95.481294 H 35.94743 v -0.198438 -0.198437 h 2.763999 2.763998 v 0.198437 0.198438 z"
         style="fill:#929190;stroke-width:0.302346" />
    </g>
    <g
       id="g847">
      <path
         style="fill:#3a97d0;stroke-width:0.264583"
         d="m 34.978723,91.635043 -0.438291,-0.0083 0.07941,-1.040286 h -0.3175 -0.3175 l 0.31309,-0.31309 0.313091,-0.31309 0.3153,0.02297 z"
         id="path878" />
      <path
         style="fill:#3a97d0;stroke-width:0.264583"
         d="m 34.685983,94.022034 -0.595313,0.0041 v -0.248969 c 0.02518,-0.246398 0.05305,-0.281755 0.264584,-0.41249 l 0.264583,-0.163521 c 0.240624,-0.274003 0.302503,-0.298093 0.06497,-0.546885 -0.324636,-0.0319 -0.333238,0.119144 -0.329548,0.328887 l -0.264584,0.01587 v -0.280198 c 0.02871,-0.303311 0.15238,-0.277637 0.529167,-0.280198 0.371526,-0.0018 0.522414,0.187216 0.529167,0.38126 0.03763,0.351504 -0.01238,0.38891 -0.292831,0.562239 l -0.292831,0.18098 0.719236,0.04438 -0.0013,0.410541 z"
         id="path874" />
      <path
         style="fill:#3a97d0;stroke-width:0.264583"
         d="m 34.553691,96.403284 -0.595312,-0.0041 0.05578,-0.344725 c 0.415475,-0.02267 0.898183,0.342844 0.723656,-0.19384 l -0.592713,-0.06333 0.03039,-0.346554 0.578798,0.02876 c 0.155487,-0.524378 -0.383292,-0.318109 -0.773547,-0.315191 l -0.02237,-0.336373 0.595312,-0.0041 c 0.630331,0.03539 0.595313,0.132176 0.595313,0.78965 0.02627,0.727289 0.111819,0.79452 -0.595313,0.78965 z"
         id="path851" />
    </g>
  </g>
</svg>
